<svg width="100" height="100" viewBox="0 0 100 100" fill="none" xmlns="http://www.w3.org/2000/svg"><path d="M85.2 67c-1.8 5 .2 10.6-2 15.4-2.6 4.2-7.3 6.8-11.2 9.9-2.9 2.3-4.3 5.1-8.2 6-6.3 2-14.4-1-21-1.2a14.5 14.5 0 0 1-14.7-5.2c-1.4-4.6-3.8-7.8-6.7-11.7-2.1-6.1-5.3-13.8-6.6-20 .3-4.5 1.8-12.3 6.8-13.5 1.5.2 3.5 1 4.8-.1C55.2 44.7 38.8 75.3 52 81.3c4.5 2.4 7.9.3 10.9-3 5.2-1.5 7.7-5.6 5.6-11-1.3-8.2-1.7-17.8-11.3-20.6-5.5.9-10.3-3-14.9-5.7-5-3.8-12-4.4-16.7-8.5-2.8-2.9-.6-7.1-.2-10.7 1-8.3 7.8-14.6 16-14 4.5-3.2 9-2.8 14.4-4.1 5-.1 13.2-4.6 16.6-.4 4.8 1.7 8.5 6.5 11.2 10.5 1.2 5.8-2 12.8-8.9 12.4-9.7-.4-12.3-7.9-24.2-6.8-7-.8-10 5.7-2.8 8.7 6.4 6.6 15.8 5.9 23.5 10.2 5 2.2 7.3 8.2 10.8 12.1 3.5 4.9 2.1 11.2 3.2 16.7Z" fill="#D9F154"/></svg>